# ProBuilder 5.0.7
# https://unity3d.com/unity/features/worldbuilding/probuilder
# 6/21/2023 1:59:52 AM

mtllib ./Barrier_15.mtl
o Barrier_15

g Barrier_15
v -0.5 -0.5 0.5
v -0.5 -0.5 -0.5
v -0.5 0.5 0.5
v -0.5 0.5 -0.5
v 0.09908736 0 -0.5
v 0.09908736 0 0.5
v 0.3993055 0.5152054 -0.5
v 0.3993055 0.5152054 0.5
v 0.3034437 0.6510535 0.5
v 0.3034437 0.6510535 -0.5

vt 0.5 -0.5
vt -0.5 -0.5
vt 0.5 0.5
vt -0.5 0.5
vt 0.5 0.04988777
vt -0.5 0.04988777
vt 0.5 0.6461827
vt -0.5 0.6461827
vt -0.4185144 0.5
vt 0.3990056 0.5
vt -0.4185144 -0.5
vt 0.3990056 -0.5
vt 0.0760735 -0.5
vt -0.7042506 -0.5
vt 0.0760735 0.5
vt -0.7042506 0.5
vt -0.5 0.1907284
vt 0.5 0.1907284
vt -0.5 0.3569939
vt 0.5 0.3569939
vt 0.3034437 0.6510535
vt 0.3993055 0.5152054
vt 0.09908736 0
vt -0.09908736 0
vt -0.3993055 0.5152054
vt -0.3034437 0.6510535

vn -1 0 0
vn 0.8640112 -0.5034726 0
vn -0.1847705 0.9827817 0
vn 0.6407595 -0.7677417 0
vn 0.8170557 0.5765588 0
vn 0 0 1
vn 0 0 -1

usemtl Lit
f 8/22/6 9/21/6 6/23/6
f 3/4/6 1/2/6 6/23/6
f 9/21/6 3/4/6 6/23/6
f 5/24/7 4/3/7 10/26/7
f 5/24/7 2/1/7 4/3/7
f 5/24/7 10/26/7 7/25/7
f 4/4/1 2/2/1 1/1/1
f 1/1/1 3/3/1 4/4/1
f 8/8/2 6/6/2 5/5/2
f 5/5/2 7/7/2 8/8/2
f 4/12/3 3/10/3 9/9/3
f 9/9/3 10/11/3 4/12/3
f 1/16/4 2/14/4 5/13/4
f 5/13/4 6/15/4 1/16/4
f 9/19/5 8/17/5 7/18/5
f 7/18/5 10/20/5 9/19/5

