# ProBuilder 5.0.7
# https://unity3d.com/unity/features/worldbuilding/probuilder
# 6/21/2023 11:53:00 PM

mtllib ./Barrier_wall_corner.mtl
o Barrier_wall_corner

g Barrier_wall_corner
v 0 0 0
v -0.4999999 0 0.09908748
v 0 1.842514 0
v -0.4999999 1.800245 0.009896636
v 0.09908736 0 -0.5
v 0.009896606 1.800245 -0.5
v -0.2 1.842514 -0.2
v -0.4999999 1.810263 -0.06324553
v -0.06324556 1.810263 -0.5
v -0.5 0.5 -0.5
v -0.5 -0.5 -0.5

vt 0.5 -0.5
vt -0.5 -0.5
vt 0.5 0.3
vt -0.5 0.3
vt -0.3 0.3
vt -0.3 -0.5
vt 0.0760735 -0.504015
vt -0.7042506 -0.504015
vt 0 0
vt -0.3838708 0.1386566
vt 0.3515151 -0.2383913
vt -0.1502665 -0.2483797
vt 0.3506981 -0.3122118
vt 0.04906727 -0.4487481
vt 0.1522185 0.151183
vt 0.1388636 -0.3505204
vt 0.3515348 -0.0494984
vt 0.2125834 -0.3501959
vt -0.5000001 0.5
vt -0.06324559 1.810263
vt 0.009896586 1.800245
vt 0.09908742 -3.024331E-09
vt -0.09908736 0
vt -0.009896606 1.800245
vt 0.06324556 1.810263
vt 0.5 0.5

vn 0.1943945 0 0.9809234
vn 0.1049892 0.02473851 0.9897885
vn 0.0155839 0.04947702 0.9986537
vn 0.9797671 0.04854126 0.1941651
vn 0.9897857 0.02427063 0.1069772
vn 0.9998042 0 0.01978934
vn -0.1902764 0.9631146 -0.1902763
vn -0.4392618 0.5962652 -0.4392617
vn -0.6882473 0.2294158 -0.6882471
vn 0.6356551 -0.7616258 0.1259708
vn 0.380813 -0.7616259 0.3808129
vn 0.1259709 -0.7616259 0.635655
vn -0.08080569 0.9875102 0.1352553
vn -0.07712476 0.9910508 0.1043496
vn -0.07344384 0.9945914 0.07344382
vn 0.08233403 0.993198 -0.082334
vn 0.108949 0.9914809 -0.06347076
vn 0.135564 0.9897639 -0.04460752
vn -1 9.960747E-09 7.848603E-08
vn 0 0 -1

usemtl Lit
f 11/2/19 2/22/19 4/21/19
f 4/21/19 8/20/19 11/2/19
f 8/20/19 10/19/19 11/2/19
f 11/1/20 10/26/20 9/25/20
f 11/1/20 9/25/20 6/24/20
f 6/24/20 5/23/20 11/1/20
f 4/4/3 2/2/2 1/1/1
f 1/1/1 3/3/2 4/4/3
f 3/4/6 1/2/5 5/1/4
f 5/1/4 6/3/5 3/4/6
f 10/1/9 8/3/8 7/5/7
f 7/5/7 9/6/8 10/1/9
f 2/10/12 11/8/11 5/7/10
f 5/7/10 1/9/11 2/10/12
f 8/13/14 4/11/13 3/12/14
f 3/12/14 7/14/15 8/13/14
f 7/17/17 3/15/16 6/16/17
f 6/16/17 9/18/18 7/17/17

