# ProBuilder 5.0.7
# https://unity3d.com/unity/features/worldbuilding/probuilder
# 6/22/2023 1:01:24 AM

mtllib ./Barrier_wall_corner_in.mtl
o Barrier_wall_corner_in

g Barrier_wall_corner_in
v -0.5 -0.5 -0.5
v -0.5 -0.5 0.5
v 0.5 -0.5 -0.5
v -0.06324553 1.810263 0.5
v -0.5 0.5 0.5
v -0.5 0.5 -0.5
v 0.5 1.810263 -0.06324565
v 0.5 0.5 -0.5
v 0.09908736 0 0.5
v 0.009896636 1.800245 0.5
v 0.5 1.800245 0.009896517
v 0.5 0 0.09908736

vt -0.6863816 -0.522234
vt 0.2700673 0.5035628
vt 0.5573516 0.1259796
vt 0.5 1.697366
vt 0.5 0.3162277
vt -0.5 0.3162277
vt 0.8804839 1.733184
vt 0.6588469 0.3871878
vt 0.2449207 1.686993
vt -0.5 1.697366
vt -0.5 0.5
vt 0.3 -0.3585965
vt -0.04140349 -0.5
vt 0.3 0.5
vt -0.3000179 -0.3585786
vt -0.3 0.5
vt 0.5 0.5
vt 0.04140349 -0.5
vt 0.5 -0.5
vt -0.5 -0.5
vt 0.1389861 0.3289056
vt -0.1288505 0.3062036
vt -0.1389865 0.3289056
vt 0.1288502 0.3062036
vt 0.283488 0.001083209
vt -0.3465555 1.802433
vt 0.3465555 1.802433
vt -0.2834881 0.001083212
vt 0.0760735 0.3867366
vt 0.06349114 -0.8009388
vt -0.7042506 0.3867366
vt 0.3838709 -0.08941749

vn 0 -1 0
vn -0.8118644 0.5003065 -0.3009478
vn -0.9486833 0.3162279 0
vn -0.6105852 0.5043525 -0.6105852
vn -0.3009478 0.5003065 -0.8118644
vn 0 0.3162278 -0.9486833
vn 0 0 1
vn 1 0 0
vn -1 0 0
vn 0 0 -1
vn 0.1344667 0.9817522 0.1344667
vn 0.7066733 0.03501119 0.7066733
vn 0.5395072 -0.6464239 0.5395072

usemtl Lit
f 3/3/1 2/2/1 1/1/1
f 2/13/7 9/12/7 5/11/7
f 3/18/8 8/17/8 12/15/8
f 10/12/7 4/14/7 5/11/7
f 5/11/7 9/12/7 10/12/7
f 8/17/8 7/16/8 11/15/8
f 11/15/8 12/15/8 8/17/8
f 6/11/9 1/20/9 2/19/9
f 2/19/9 5/17/9 6/11/9
f 8/11/10 3/20/10 1/19/10
f 1/19/10 6/17/10 8/11/10
f 9/29/13 2/31/13 3/30/13
f 3/30/13 12/32/13 9/29/13

usemtl Lit_1
f 6/6/4 5/5/3 4/4/2
f 7/9/5 6/8/4 4/7/2
f 8/6/6 6/5/4 7/10/5
f 7/21/11 4/23/11 10/22/11
f 10/22/11 11/24/11 7/21/11
f 12/25/12 11/27/12 10/26/12
f 10/26/12 9/28/12 12/25/12

