# ProBuilder 5.0.7
# https://unity3d.com/unity/features/worldbuilding/probuilder
# 6/22/2023 1:32:39 AM

mtllib ./Barrier_15__corner.mtl
o Barrier_15 _corner

g Barrier_15 _corner
v -0.05348539 -0.1924822 -0.2585483
v -0.5 0 0.09908724
v 0.3172125 0.651818 0.3202991
v -0.5 0.5152054 0.3993058
v 0.09908736 0 -0.5
v 0.3993055 0.5152054 -0.5
v 0.1817753 0.7331765 0.2198639
v -0.5 0.6510535 0.3034439
v 0.3034437 0.6510535 -0.5
v -0.5 0.5 -0.5
v -0.5 -0.5 -0.5

vt 0.6539857 -0.421849
vt -0.2423792 -0.5007464
vt 0.28734 0.8296164
vt -0.6882461 0.05102697
vt 0.5 -0.5770285
vt -0.5 -0.5770285
vt 0.5 0.3906866
vt -0.3203 0.5554565
vt -0.3084755 0.3410874
vt 0.378134 0.4254369
vt -0.4178438 -0.3854042
vt 0.3986786 -0.3908454
vt 0.0760735 -0.4767285
vt -0.7042506 -0.4767285
vt -0.1643978 -0.2301512
vt -0.3838709 0.03204372
vt -0.362371 0.05569413
vt 0.452975 0.2228828
vt -0.3644111 0.2219471
vt 0.3154312 0.3455857
vt -0.4078143 -0.3263254
vt 0.4272918 -0.2964804
vt -0.3420471 -0.1510418
vt 0.3902481 -0.1454571
vt -0.5 -0.5
vt -0.5 0.5
vt 0.3034439 0.6510535
vt 0.3993058 0.5152054
vt 0.09908724 0
vt -0.09908736 0
vt -0.3993055 0.5152054
vt -0.3034437 0.6510535
vt 0.5 0.5
vt 0.5 -0.5

vn 0.3050094 -0.6259801 0.7177173
vn 0.2351981 -0.5612599 0.7849149
vn 0.1653868 -0.4965398 0.8521124
vn 0.855117 -0.4982898 0.1431161
vn 0.8552555 -0.4942616 0.1551824
vn 0.8553941 -0.4902335 0.1672487
vn -0.1347682 0.9816695 -0.1347681
vn -0.1582315 0.9740464 -0.1582315
vn -0.1816949 0.9664233 -0.1816948
vn 0.6274401 -0.7517828 -0.2028337
vn 0.4033731 -0.753541 0.2137706
vn 0.1793061 -0.7552992 0.6303749
vn -0.01738877 0.5764721 0.8169318
vn -0.01566045 0.6720831 0.7287984
vn -0.01393212 0.7676941 0.6406651
vn 0.5571277 0.8263813 -0.08186997
vn 0.6860275 0.7007191 -0.004868843
vn 0.8149273 0.5750569 0.07213228
vn -1 0 0
vn 0 0 -1

usemtl Lit
f 4/28/19 11/25/19 2/29/19
f 10/26/19 11/25/19 4/28/19
f 8/27/19 10/26/19 4/28/19
f 6/31/20 10/33/20 9/32/20
f 6/31/20 11/34/20 10/33/20
f 5/30/20 11/34/20 6/31/20
f 4/4/3 2/2/2 1/1/1
f 1/1/1 3/3/2 4/4/3
f 3/8/6 1/6/5 5/5/4
f 5/5/4 6/7/5 3/8/6
f 10/12/9 8/10/8 7/9/7
f 7/9/7 9/11/8 10/12/9
f 2/16/12 11/14/11 5/13/10
f 5/13/10 1/15/11 2/16/12
f 8/19/14 4/17/13 3/18/14
f 3/18/14 7/20/15 8/19/14
f 7/23/17 3/21/16 6/22/17
f 6/22/17 9/24/18 7/23/17

