# ProBuilder 5.0.7
# https://unity3d.com/unity/features/worldbuilding/probuilder
# 6/21/2023 2:56:31 AM

mtllib ./Barrier_30_corner.mtl
o Barrier_30_corner

g Barrier_30_corner
v -0.4999999 0 -0.09908748
v -0.5 -0.5 0.5
v -0.5 0.8143631 -0.425576
v 0.3237351 0.8247154 -0.3109332
v 0.09908736 -2.384186E-07 0.5
v 0.4255758 0.8143629 0.5
v 0.3211145 0.9105571 0.5
v -0.5 0.5 0.5
v 0.3 1 -0.3
v -0.5 0.9105573 -0.3211145

vt 0.5 -0.5
vt -0.5 -0.5
vt 0.5 0.3
vt -0.5 0.3
vt -0.3 0.5
vt 0.5 0.5
vt -0.3 -0.3
vt 0.5 -0.3
vt 0.7042506 0.4552445
vt 0.3838709 -0.2562768
vt -0.07607336 0.4552445
vt 0.2385884 0.5655368
vt 0.3205168 -0.2477154
vt 0.3805936 0.5655368
vt 0.4567143 -0.2282961
vt -0.2781362 0.7938614
vt 0.5535379 0.7834759
vt -0.2561207 0.9697105
vt 0.5392418 0.8876459
vt -0.5 0.5
vt 0.3211145 0.9105571
vt 0.4255758 0.8143629
vt 0.09908736 -2.384186E-07
vt -0.09908745 1.730776E-08
vt -0.4255759 0.8143631
vt -0.3211145 0.9105573
vt 0.5 -0.5

vn 1 1.699428E-07 2.413271E-07
vn 0.560075 -0.2857971 -0.4058459
vn 0.1201501 -0.5715944 -0.8116919
vn 0.5486498 -0.6573787 -0.5165623
vn 0.7350392 -0.5133955 -0.3184977
vn 0.9214285 -0.3694123 -0.1204332
vn -0.4444443 0.888889 0.1111113
vn -0.2777777 0.8888889 0.2777779
vn -0.1111111 0.8888888 0.4444445
vn -0.5395071 0.6464241 0.5395072
vn 0 0 0
vn 0.5395071 -0.6464241 -0.5395072
vn 0.6754675 0.7335182 -0.07546412
vn 0.8331356 0.4341861 -0.04326868
vn 0.9908037 0.134854 -0.01107323
vn 0.1364161 0.08006112 -0.9874111
vn 0.03609169 0.4070791 -0.8317055
vn -0.06423269 0.7340971 -0.6759997
vn 0 0 1
vn -1 -1.699428E-07 -2.413271E-07

usemtl Lit
f 2/2/19 5/23/19 6/22/19
f 6/22/19 7/21/19 2/2/19
f 7/21/19 8/20/19 2/2/19
f 10/26/20 2/27/20 8/6/20
f 3/25/20 1/24/20 2/27/20
f 10/26/20 3/25/20 2/27/20
f 4/4/3 2/2/2 1/1/1
f 1/1/1 3/3/2 4/4/3
f 6/4/6 5/2/5 2/1/4
f 2/1/4 4/3/5 6/4/6
f 10/8/9 8/6/8 7/5/7
f 7/5/7 9/7/8 10/8/9
f 2/9/12 1/10/11 2/9/10
f 2/9/10 5/11/11 2/9/12
f 7/14/14 6/12/13 4/13/14
f 4/13/14 9/15/15 7/14/14
f 9/18/17 4/16/16 3/17/17
f 3/17/17 10/19/18 9/18/17

