# ProBuilder 5.0.7
# https://unity3d.com/unity/features/worldbuilding/probuilder
# 6/21/2023 11:33:28 PM

mtllib ./Barrier_30_corner_in.mtl
o Barrier_30_corner_in

g Barrier_30_corner_in
v -0.5 -0.5 0.5
v -0.5 -0.5 -0.5
v -0.5 0.5 0.5
v -0.5 0.5 -0.5
v 0.5 -0.5 -0.5
v 0.5 0.5 -0.5
v 0.3211145 0.9105573 0.5
v 0.4255757 0.8143631 0.5
v 0.4999999 0.9105573 0.3211145
v 0.4999999 0.8143631 0.4255757
v 0.5 0 0.09908736
v 0.09908736 0 0.5

vt 0.5 -0.5
vt -0.5 -0.5
vt 0.5 0.5
vt -0.5 0.5
vt -0.1389865 0.3289056
vt -0.1288505 0.3062036
vt 0.1389861 0.3289056
vt 0.1288502 0.3062036
vt 0.363232 0.6293157
vt 0.363232 -0.3423059
vt -0.6066816 -0.3998916
vt -0.7066314 0.4921128
vt -0.5331281 0.676223
vt -0.6863816 -0.522234
vt -0.6863816 0.3662743
vt 0.2700673 0.5035628
vt 0.5573516 0.1259796
vt 0.1699423 -0.7592076
vt 0.07120133 0.7186126
vt -0.07120217 0.7186126
vt 0.212286 0.348282
vt -0.2122866 0.3482819
vt -0.7042506 0.3867366
vt 0.06349114 -0.8009388
vt 0.0760735 0.3867366
vt 0.3838709 -0.08941749
vt 0.3 -0.3585965
vt -0.04140349 -0.5
vt 0.3 0.5
vt 0.04140349 -0.5
vt -0.3000179 -0.3585786
vt -0.3 0.5

vn -1 0 0
vn 0 0 -1
vn 0.5608369 0.6090356 0.5608366
vn -0.4472136 0.8944272 0
vn -0.2206681 0.9138677 -0.220668
vn 0 0.8944272 -0.4472136
vn -0.1073953 0.9235879 -0.331002
vn -0.3310021 0.9235879 -0.1073952
vn 0 -0.3333333 0
vn 0 0 0
vn 0 -0.5 0
vn 0.6802993 -0.27274 0.6802983
vn 0.5395073 -0.6464239 0.5395072
vn 0 0 1
vn 0 0 0.5
vn 0 0 0.6666667
vn 0.6666667 3.626044E-08 3.026306E-08
vn 0.5 0 0
vn 1 7.189806E-08 6.308036E-08

usemtl Lit
f 7/13/8 4/10/5 3/9/4
f 9/12/7 6/11/6 4/10/5
f 7/13/8 9/12/7 4/10/5
f 2/14/9 5/17/11 1/16/11
f 2/14/9 5/18/10 5/17/11
f 1/15/10 2/14/9 1/16/11
f 3/4/16 1/2/10 1/28/15
f 3/4/16 1/28/15 12/27/14
f 7/29/14 12/27/14 8/27/14
f 3/4/16 12/27/14 7/29/14
f 9/32/19 11/31/19 6/3/17
f 10/31/19 11/31/19 9/32/19
f 11/31/19 5/30/18 6/3/17
f 5/30/18 5/1/10 6/3/17
f 4/4/1 2/2/1 1/1/1
f 1/1/1 3/3/1 4/4/1
f 6/4/2 5/2/2 2/1/2
f 2/1/2 4/3/2 6/4/2
f 9/7/3 7/5/3 8/6/3
f 8/6/3 10/8/3 9/7/3
f 11/21/12 10/19/12 8/20/12
f 8/20/12 12/22/12 11/21/12
f 12/25/13 1/23/13 5/24/13
f 5/24/13 11/26/13 12/25/13

