# ProBuilder 5.0.7
# https://unity3d.com/unity/features/worldbuilding/probuilder
# 6/22/2023 1:05:06 AM

mtllib ./Barrier_wall_corner.mtl
o Barrier_wall_corner

g Barrier_wall_corner
v -0.5 -0.5 -0.5
v -0.4999999 1.800245 0.009896636
v -0.4999999 0 0.09908748
v -0.4999999 1.810263 -0.06324553
v -0.5 0.5 -0.5
v -0.06324556 1.810263 -0.5
v 0.009896606 1.800245 -0.5
v 0.09908736 0 -0.5
v 0 0 0
v 0 1.842514 0
v -0.2 1.842514 -0.2

vt -0.5 -0.5
vt 0.009896586 1.800245
vt 0.09908742 -3.024331E-09
vt -0.06324559 1.810263
vt -0.5000001 0.5
vt 0.5 -0.5
vt 0.06324556 1.810263
vt 0.5 0.5
vt -0.009896606 1.800245
vt -0.09908736 0
vt -0.4923855 1.80237
vt 0 0
vt -0.5097237 5.823131E-11
vt 0 1.840342
vt 0 1.842514
vt 0.5097237 0
vt 0.4923856 1.800245
vt 0.2280801 0.3302196
vt 0.09123208 1.731511
vt 0.4207904 1.697848
vt -0.09123203 1.731511
vt -0.2280801 0.3302196
vt -0.4207904 1.697848
vt -0.3838708 0.1386566
vt 0.0760735 -0.504015
vt -0.7042506 -0.504015
vt 0.3506981 -0.3122118
vt -0.1502665 -0.2483797
vt 0.3515151 -0.2383913
vt 0.04906727 -0.4487481
vt 0.3515348 -0.0494984
vt 0.1388636 -0.3505204
vt 0.1522185 0.151183
vt 0.2125834 -0.3501959

vn -1 1.120584E-08 1.394737E-07
vn 0 0 -1
vn 0.1069774 0.02427066 0.9897857
vn 0.1941653 0.04854131 0.9797671
vn 0.0197894 0 0.9998042
vn 0.9897885 0.02473848 0.1049891
vn 0.9809235 0 0.1943942
vn 0.9986537 0.04947697 0.01558388
vn -0.6742398 0.3013331 -0.6742397
vn -0.4227251 0.286584 -0.8597518
vn -0.8597518 0.286584 -0.422725
vn 0.2973114 -0.9073103 0.2973112
vn 0.5395073 -0.6464239 0.5395071
vn 0 -1 0
vn -0.07712402 0.9910509 0.1043492
vn -0.080805 0.9875103 0.1352554
vn -0.07344305 0.9945915 0.07344305
vn 0.1089487 0.9914811 -0.06346982
vn 0.08233333 0.9931981 -0.08233333
vn 0.135564 0.989764 -0.04460631

usemtl Lit
f 5/5/1 1/1/1 4/4/1
f 5/8/2 6/7/2 1/6/2
f 4/20/10 11/19/9 5/18/9
f 6/23/11 5/22/9 11/21/9
f 1/26/13 8/25/12 3/24/12
f 9/12/14 3/24/12 8/25/12
f 1/1/1 3/3/1 2/2/1
f 2/2/1 4/4/1 1/1/1
f 1/6/2 6/7/2 7/9/2
f 7/9/2 8/10/2 1/6/2
f 2/11/3 3/13/4 9/12/3
f 9/12/3 10/14/5 2/11/3
f 10/15/6 9/12/7 8/16/6
f 8/16/6 7/17/8 10/15/6
f 4/27/15 2/29/16 10/28/15
f 10/28/15 11/30/17 4/27/15
f 11/31/18 10/33/19 7/32/18
f 7/32/18 6/34/20 11/31/18

