# ProBuilder 5.0.7
# https://unity3d.com/unity/features/worldbuilding/probuilder
# 6/22/2023 1:19:36 AM

mtllib ./Barrier_-30_corner_in.mtl
o Barrier_-30_corner_in

g Barrier_-30_corner_in
v 0.3 -0.5 0.5
v -0.5 -0.5 0.5
v 0.3128541 0.1935982 0.5
v -0.5 0.5 0.5
v -0.5 -0.5 -0.5
v -0.5 0.5 -0.5
v 0.5 -0.5 -0.5
v 0.5 0.5 -0.5
v 0.5 -0.5 0.3
v 0.5 0.1935982 0.3128541

vt 0.3 -0.5
vt -0.5 -0.5
vt 0.3 0.5
vt -0.5 0.5
vt 0.5 -0.5
vt 0.5 0.5
vt -0.3 -0.5
vt -0.3 0.5
vt -0.1323321 0.201113
vt -0.1414213 -0.4925448
vt 0.1323322 0.201113
vt 0.1414214 -0.4925448
vt 0.6337247 0.3842256
vt 0.6337247 -0.5991516
vt -0.3490807 -0.6326783
vt -0.405656 0.2213421
vt -0.2217279 0.4116515
vt 0.5 0.3

vn 0 0 1
vn -1 0 0
vn 0 0 -1
vn 1 0 0
vn 0.707046 -0.01310326 0.7070462
vn 0.3527191 0.9357293 0
vn 0.1723682 0.9480202 0.1723682
vn 0 0.9357293 0.3527191
vn 0.08219278 0.9541657 0.2585523
vn 0.2585523 0.9541657 0.08219278
vn 0 -1 0

usemtl Lit
f 3/17/10 6/14/7 4/13/6
f 10/16/9 8/15/8 6/14/7
f 3/17/10 10/16/9 6/14/7
f 5/2/11 9/18/11 1/3/11
f 5/2/11 7/5/11 9/18/11
f 2/4/11 5/2/11 1/3/11
f 4/4/1 2/2/1 1/1/1
f 1/1/1 3/3/1 4/4/1
f 6/4/2 5/2/2 2/5/2
f 2/5/2 4/6/2 6/4/2
f 8/4/3 7/2/3 5/5/3
f 5/5/3 6/6/3 8/4/3
f 10/8/4 9/7/4 7/5/4
f 7/5/4 8/6/4 10/8/4
f 10/11/5 3/9/5 1/10/5
f 1/10/5 9/12/5 10/11/5

