# ProBuilder 5.0.7
# https://unity3d.com/unity/features/worldbuilding/probuilder
# 6/20/2023 1:46:27 AM

mtllib ./Protect.mtl
o Protect

g Protect
v -5.707107 0.0001004768 -5
v -5 0.7072071 -5
v -5.707107 9.952316E-05 5
v -5 0.7072061 5
v -4.0001 0.0001009537 -5.000002
v -4.0001 9.952316E-05 5.000001
v -5 -0.7070061 -5
v -5 -0.7070071 5
v 5.707107 0.0001004768 -5
v 5 -0.7070061 -5
v 5.707107 9.952316E-05 5
v 5 -0.7070071 5
v 4.0001 0.0001 -5.000002
v 4.0001 9.952316E-05 5.000001
v 5 0.7072071 -5
v 5 0.7072061 5
v 5 -1 5
v -5 -1 5
v 5 0 5
v -5 0 5
v -5 -1 -5
v -5 0 -5
v 5 -1 -5
v 5 0 -5

vt 0.5 -5
vt -0.5 -5
vt 0.5 5
vt -0.5 5
vt 0.4082753 -5
vt -0.816388 -5.000002
vt 0.4082753 5
vt -0.8163881 5
vt 0.8163881 -5.000002
vt -0.4082756 -5
vt 0.8163872 5
vt -0.4082756 5
vt -0.5 0.5
vt 0.5 0.5
vt -0.5 -0.5
vt 0.7070357 -0.7070363
vt 0.4999921 -0.5
vt -0.7070445 -0.707036
vt 0.4999921 0.5
vt 5 -0.5
vt -5 -0.5
vt 5 0.5
vt -5 0.5
vt -5 5
vt 5 5
vt -5 -5
vt 5 -5

vn -0.7071065 0.707107 6.743497E-08
vn 0.5773883 0.8164697 7.786462E-08
vn 0.5773888 -0.8164694 -8.92648E-08
vn -0.7071065 -0.707107 -6.743497E-08
vn 0 0 1
vn -1.117364E-06 -1.117364E-06 -1
vn 0.7071068 -0.7071068 -6.743495E-08
vn -0.5773883 -0.8164697 -7.786462E-08
vn -0.5773888 0.8164694 6.646431E-08
vn 0.7071068 0.7071068 6.743495E-08
vn -1 0 0
vn 1 0 0
vn 0 1 0
vn 0 -1 0

usemtl Lit
f 3/3/1 4/4/1 2/2/1 1/1/1
f 4/7/2 6/8/2 5/6/2 2/5/2
f 6/11/3 8/12/3 7/10/3 5/9/3
f 8/3/4 3/4/4 1/2/4 7/1/4
f 8/15/5 6/16/5 4/14/5 3/13/5
f 1/19/6 2/13/6 5/18/6 7/17/6
f 11/3/7 12/4/7 10/2/7 9/1/7
f 12/7/8 14/8/8 13/6/8 10/5/8
f 14/11/9 16/12/9 15/10/9 13/9/9
f 16/3/10 11/4/10 9/2/10 15/1/10
f 16/15/5 14/16/5 12/14/5 11/13/5
f 9/19/6 10/13/6 13/18/6 15/17/6
f 19/22/5 20/23/5 18/21/5 17/20/5
f 20/22/11 22/23/11 21/21/11 18/20/11
f 22/22/6 24/23/6 23/21/6 21/20/6
f 24/22/12 19/23/12 17/21/12 23/20/12
f 24/26/13 22/27/13 20/25/13 19/24/13
f 17/25/14 18/24/14 21/26/14 23/27/14

